<?xml version="1.0" standalone="no"?><!DOCTYPE svg PUBLIC "-//W3C//DTD SVG 1.1//EN" "http://www.w3.org/Graphics/SVG/1.1/DTD/svg11.dtd"><svg t="1712520358095" class="icon" viewBox="0 0 4869 1024" version="1.1" xmlns="http://www.w3.org/2000/svg" p-id="4242" xmlns:xlink="http://www.w3.org/1999/xlink" width="228.234375" height="48"><path d="M815.757252 107.432906c-52.118521-8.31723-102.774213-7.836586-151.92528 1.483727A402.863211 402.863211 0 0 0 526.618576 161.933749a391.933786 391.933786 0 0 0-108.416554 98.678291c-29.988002 39.768062-52.118521 85.888982-66.370659 138.425454-14.273035 52.536472-17.971904 109.712203-11.075708 171.568989 4.910927 46.162716 18.180879 89.608748 39.830754 130.338097a427.167076 427.167076 0 0 0 80.392923 107.51796 438.284579 438.284579 0 0 0 107.68514 76.568669c39.809857 20.14525 80.873567 32.182246 123.170234 36.090091 50.15415 5.893113 95.627246 4.660156 136.440186-3.677971 40.81294-8.359025 78.156884-21.106538 112.094525-38.284335a412.831348 412.831348 0 0 0 91.468632-62.609097 837.448922 837.448922 0 0 0 74.478913-76.56867c9.821854 12.747513 14.273035 25.286051 13.269952 37.55292a74.666991 74.666991 0 0 1-11.786225 34.606364c-6.896196 10.80404-15.485094 20.625894-25.829388 29.465563-10.323396 8.818771-18.912294 16.676255-25.808489 23.551553-57.050346 50.07056-122.668692 88.104124-196.917732 114.121589a777.765483 777.765483 0 0 1-229.371647 43.46693c-78.679323 2.925659-155.895817-5.642342-231.607686-25.787592-75.711869-20.124353-143.315484-51.78416-202.810844-94.979422-59.495361-43.195262-107.183598-97.696105-143.064714-163.460734C16.509074 672.711973-0.94039 595.66266 0.041795 507.286868c0.982185-72.639927 14.753679-137.69404 41.293584-195.120541 26.539904-57.447399 62.441917-106.786545 107.68514-148.017436 45.243223-41.230891 97.361744-74.855069 156.355563-100.872534A729.01147 729.01147 0 0 1 490.507588 9.527826a848.984376 848.984376 0 0 1 196.917732-6.624528c66.8722 5.391571 130.296303 18.891397 190.293205 40.499477a636.560653 636.560653 0 0 1 164.463817 87.623479 462.672035 462.672035 0 0 1 121.686507 133.263757 2148.227636 2148.227636 0 0 1-201.348015 121.519326 2148.227636 2148.227636 0 0 0-201.348015 121.498429 1084.374521 1084.374521 0 0 1 44.261037-84.697821 3418.736746 3418.736746 0 0 1 108.416555-175.24696c19.183962-28.964022 37.615613-57.175731 55.315848-84.676923-50.15415-28.483378-101.290486-46.89413-153.409007-55.232258z m1031.420097 893.600673l-37.908178-159.782764c-36.77971 44.658091-74.959557 77.885216-114.602233 99.660476-39.621779 21.733465-76.108923 37.218559-109.419638 46.392589-39.036647 10.302498-77.529957 14.879065-115.438135 13.750596-36.77971 0-69.212727-3.448098-97.361744-10.323396-28.149017-6.875298-52.55737-16.02843-73.225059-27.480294-20.688587-11.451864-38.200744-24.34566-52.55737-38.660491a216.122592 216.122592 0 0 1-35.316881-45.535789c-21.837953-36.654325-35.630344-77.885216-41.377174-123.71357 0-32.077759 4.325795-60.999985 12.935592-86.76668 8.609796-25.766695 20.396021-48.398755 35.31688-67.875283a279.275026 279.275026 0 0 1 49.966072-50.676589 385.183873 385.183873 0 0 1 56.862268-36.946891c45.974638-22.903729 98.218544-38.367925 156.815309-46.392589 41.356276 0 76.965723 4.304898 106.82834 12.893796 29.883514 8.568001 54.563536 17.470362 74.102757 26.623495 22.987319 11.451864 42.505642 24.053095 58.575868 37.803691l-62.023966-237.103745H1285.42997c89.608748-40.102423 162.541242-69.881449 218.839276-89.357978 56.277136-19.476528 101.08151-33.227124 134.413122-41.230891 37.908178-9.17403 67.185664-12.60123 87.87425-10.302498 47.103106-1.149366 85.888982 6.875298 116.315834 24.032197 30.426851 17.198694 54.835204 36.090091 73.225059 56.715985a298.751554 298.751554 0 0 1 49.966072 82.482679l186.092794 671.814841H1847.177349z m-124.925628-162.374061c29.298383-29.193895 43.926676-64.427185 43.926676-105.658077 0-42.380257-14.628294-78.177782-43.926676-107.392574-29.298383-29.214792-65.200395-43.822189-107.706038-43.822188-41.356276 0-76.694055 14.628294-105.950642 43.822188-29.298383 29.214792-43.947574 64.99142-43.947574 107.392574 0 41.230891 14.628294 76.464181 43.926676 105.678974 29.298383 29.193895 64.615263 43.801291 105.97154 43.801291 42.505642 0 78.407655-14.607396 107.706038-43.801291zM2456.090527 185.380815c19.434733 10.908528 35.463164 23.823221 48.064394 38.764978a208.265108 208.265108 0 0 1 32.600198 58.575868c62.901663-33.310715 114.685823-58.3042 155.289787-74.938659 40.624862-16.655357 72.932493-27.856451 96.96469-33.603281 28.608763-6.896196 49.757096-9.759162 63.486795-8.630693 33.185329 0 58.638561 9.487493 76.380592 28.420685a199.843391 199.843391 0 0 1 40.332295 62.901663c10.281601 26.414519 16.571767 56.298034 18.849602 89.608748l-8.568001 654.720635H2675.72391V410.238588c1.149366-27.563885-2.298732-48.231574-10.302499-62.023966-8.003766-13.792391-16.571767-23.551553-25.724899-29.298383-11.451864-5.74683-24.596431-8.609796-39.475496-8.609795-18.306265 1.149366-31.764295 5.454264-40.332296 12.935591-8.568001 7.46043-15.150733 15.77766-19.727299 24.972587a101.645744 101.645744 0 0 0-6.875298 37.908179V1001.221657h-302.011574l3.427201-692.649711h-187.033185c61.773195-35.609447 114.100692-62.609097 157.003387-80.978055 42.902696-18.389855 77.50906-32.182246 103.819091-41.377174 30.886597-10.323396 56.047263-15.485094 75.502893-15.485094 28.608763-1.149366 52.620063 3.740664 72.075694 14.628294z m1880.78063 0c19.434733 10.908528 35.463164 23.823221 48.064394 38.764978a208.536777 208.536777 0 0 1 32.600198 58.575868c62.901663-33.310715 114.685823-58.3042 155.289787-74.938659 40.624862-16.655357 72.932493-27.856451 96.96469-33.603281 28.587866-6.896196 49.757096-9.759162 63.486795-8.630693 33.185329 0 58.638561 9.487493 76.359694 28.420685a199.947879 199.947879 0 0 1 40.332296 62.901663c10.302498 26.414519 16.592665 56.298034 18.870499 89.608748l-8.568001 654.720635H4556.50454V410.238588c1.149366-27.563885-2.298732-48.231574-10.302499-62.023966-8.003766-13.792391-16.592665-23.551553-25.724899-29.298383-11.451864-5.74683-24.596431-8.609796-39.475496-8.609795-18.306265 1.149366-31.764295 5.454264-40.332295 12.935591-8.568001 7.46043-15.150733 15.77766-19.727299 24.972587a101.562154 101.562154 0 0 0-6.875299 37.908179V1001.221657h-302.011574l3.427201-692.649711h-187.033185c61.773195-35.609447 114.100692-62.609097 157.003387-80.978055 42.902696-18.389855 77.50906-32.182246 103.819091-41.377174 30.886597-10.323396 56.047263-15.485094 75.502894-15.485094 28.608763-1.149366 52.620063 3.740664 72.075693 14.628294z m-652.212927 4.054127c40.541271 13.792391 76.04623 31.03288 106.473081 51.721467 30.405954 20.688587 55.754697 43.675906 76.04623 68.961957a494.43633 494.43633 0 0 1 50.697487 75.858152c30.405954 60.916395 47.855418 129.29322 52.369292 205.151371-3.364508 55.169565-11.82802 103.714603-25.348744 145.656011-13.520723 41.962306-30.698519 78.156884-51.533389 108.62553-20.83487 30.447749-43.926676 56.026365-69.27542 76.694055-25.369641 20.688587-50.990053 37.364842-76.90303 50.007867-61.961273 29.883514-130.693356 46.559769-206.175352 50.007867-55.190463-1.149366-103.65191-8.045562-145.32165-20.688587-41.690637-12.643025-77.467264-29.026714-107.329881-49.130169-29.841719-20.124353-54.918794-43.111672-75.18943-68.961957a486.683334 486.683334 0 0 1-50.697487-78.449449c-30.426851-63.194229-46.768745-133.890683-49.025682-212.047568 3.385405-55.169565 12.120586-103.714603 26.205543-145.656011 14.084957-41.962306 31.555319-78.156884 52.39019-108.604632 20.83487-30.468646 43.926676-56.047263 69.27542-76.73585 25.348743-20.688587 50.990053-37.343944 76.90303-49.98697 60.811907-29.883514 129.000654-45.389506 204.48265-46.538871 54.082892 2.298732 101.394974 10.323396 141.957142 24.115787z m-17.616645 747.714788c10.11442-10.11442 16.885231-21.357309 20.270635-33.707768 4.472078-13.478928 5.600547-29.214792 3.34361-47.186697l-146.847172-566.323945c-5.642342-21.357309-14.356625-36.528939-26.163748-45.514891-11.82802-8.985952-23.927709-14.607396-36.299066-16.843436-14.628294-2.256937-30.385056-1.128468-47.270287 3.34361-19.142167 4.513874-32.913661 11.535455-41.356276 21.085641a82.796143 82.796143 0 0 0-17.721133 31.179163c-4.513874 12.350459-5.642342 25.850285-3.385405 40.457681l148.560772 562.938541c8.985952 22.485777 18.849601 38.49331 29.549154 48.043496 10.678654 9.550186 21.106538 16.007533 31.220958 19.37204a60.10139 60.10139 0 0 0 37.155866 1.671805c22.485777-2.215142 38.806774-8.40082 48.942092-18.51524z" fill="#CE0000" p-id="4243"></path></svg>