<?xml version="1.0" standalone="no"?><!DOCTYPE svg PUBLIC "-//W3C//DTD SVG 1.1//EN" "http://www.w3.org/Graphics/SVG/1.1/DTD/svg11.dtd"><svg t="1712677379709" class="icon" viewBox="0 0 1820 1024" version="1.1" xmlns="http://www.w3.org/2000/svg" p-id="5378" xmlns:xlink="http://www.w3.org/1999/xlink" width="85.3125" height="48"><path d="M891.828148 188.871111l-81.825185 346.737778c-3.792593 16.118519-18.204444 27.496296-34.797037 27.496296H615.632593c-12.420741 0-21.428148-11.662222-18.29926-23.703704l30.625186-117.76c3.128889-12.041481 14.032593-20.48 26.453333-20.48h149.902222l21.048889-92.539259H543.383704c-51.674074 0-96.616296 35.555556-108.468148 85.807408l-44.562963 188.776296c-8.722963 36.977778 19.342222 72.438519 57.268148 72.438518h420.124444c51.579259 0 96.426667-35.365926 108.373334-85.522963l91.022222-381.25037H891.828148z" fill="#2c2c2c" p-id="5379"></path><path d="M746.192593 802.607407h230.305185c87.608889 0 163.745185-60.112593 184.13037-145.351111l83.152593-348.823703h-168.96l-69.30963 295.253333c-11.188148 47.502222-53.57037 81.161481-102.4 81.161481H774.068148M1371.022222 654.222222l78.885926-345.789629H1280.948148L1199.122963 654.222222" fill="#2c2c2c" p-id="5380"></path></svg>