<?xml version="1.0" standalone="no"?><!DOCTYPE svg PUBLIC "-//W3C//DTD SVG 1.1//EN" "http://www.w3.org/Graphics/SVG/1.1/DTD/svg11.dtd"><svg t="1712520450800" class="icon" viewBox="0 0 3072 1024" version="1.1" xmlns="http://www.w3.org/2000/svg" p-id="9683" xmlns:xlink="http://www.w3.org/1999/xlink" width="144" height="48"><path d="M2949.12 278.186667h-129.706667c-22.186667 0-35.84 10.24-40.96 32.426666-20.48 83.626667-39.253333 167.253333-59.733333 249.173334l-15.36 61.44h-1.706667c0-1.706667-1.706667-5.12-1.706666-6.826667-23.893333-110.933333-49.493333-220.16-73.386667-331.093333-1.706667-5.12-3.413333-5.12-6.826667-5.12h-92.16c-27.306667 0-32.426667 5.12-32.426666 32.426666v416.426667c0 3.413333 0 5.12 3.413333 3.413333h40.96c6.826667 0 8.533333-3.413333 8.533333-10.24v-6.826666-344.746667c0-1.706667-3.413333-6.826667 3.413334-6.826667 5.12 0 5.12 3.413333 5.12 5.12 8.533333 32.426667 17.066667 66.56 25.6 98.986667 22.186667 85.333333 44.373333 170.666667 64.853333 256 1.706667 5.12 3.413333 6.826667 10.24 6.826667h52.906667c22.186667 0 30.72-6.826667 37.546666-29.013334 18.773333-71.68 37.546667-145.066667 54.613334-216.746666 10.24-39.253333 20.48-78.506667 29.013333-117.76 0-1.706667 0-5.12 3.413333-5.12 6.826667 0 5.12 3.413333 5.12 6.826666v356.693334c0 3.413333 1.706667 5.12 5.12 5.12h81.92c18.773333 0 25.6-8.533333 25.6-27.306667V281.6c3.413333-3.413333 1.706667-3.413333-3.413333-3.413333zM896 278.186667c-3.413333-3.413333-11.946667-1.706667-18.773333-1.706667h-73.386667c-15.36 0-22.186667 6.826667-22.186667 23.893333v319.146667c0 8.533333 0 17.066667-1.706666 25.6-3.413333 18.773333-11.946667 34.133333-29.013334 42.666667-30.72 13.653333-63.146667 13.653333-93.866666 0-15.36-6.826667-23.893333-18.773333-27.306667-35.84-1.706667-10.24-3.413333-22.186667-3.413333-32.426667v-162.133333-102.4-73.386667c0-5.12-1.706667-5.12-5.12-5.12h-90.453334c-13.653333 0-20.48 6.826667-20.48 20.48V610.986667c0 11.946667 1.706667 23.893333 3.413334 35.84 8.533333 40.96 35.84 64.853333 71.68 80.213333 27.306667 11.946667 54.613333 15.36 83.626666 18.773333 46.08 3.413333 92.16 1.706667 136.533334-10.24 40.96-11.946667 71.68-34.133333 85.333333-76.8 5.12-15.36 6.826667-32.426667 6.826667-47.786666V298.666667c-1.706667-6.826667 1.706667-15.36-1.706667-20.48zM1867.093333 278.186667H1623.04c-8.533333 0-17.066667 0-27.306667 3.413333-15.36 3.413333-25.6 13.653333-29.013333 30.72-1.706667 6.826667-1.706667 13.653333-1.706667 20.48v116.053333c0 8.533333-3.413333 13.653333-10.24 18.773334l-71.68 56.32h75.093334c5.12 0 6.826667 1.706667 6.826666 6.826666v192.853334c0 3.413333 0 6.826667 5.12 6.826666h87.04c22.186667 0 27.306667-6.826667 27.306667-29.013333v-170.666667c0-5.12 1.706667-6.826667 6.826667-6.826666h157.013333c10.24 0 10.24 0 10.24-11.946667v-32.426667c0-5.12-1.706667-6.826667-6.826667-6.826666h-163.84c-5.12 0-5.12-1.706667-5.12-5.12v-11.946667-100.693333c0-17.066667 8.533333-25.6 23.893334-27.306667h151.893333c6.826667 0 10.24-1.706667 8.533333-8.533333v-34.133334c6.826667-6.826667 5.12-6.826667 0-6.826666zM438.613333 278.186667H196.266667c-8.533333 0-17.066667 0-27.306667 3.413333-17.066667 5.12-27.306667 15.36-29.013333 32.426667-1.706667 6.826667-1.706667 11.946667-1.706667 18.773333V721.92c0 8.533333 1.706667 8.533333 8.533333 8.533333H238.933333c11.946667-1.706667 18.773333-8.533333 18.773334-18.773333v-10.24-168.96c0-6.826667 1.706667-8.533333 8.533333-8.533333h157.013333c10.24 0 10.24 0 10.24-10.24v-32.426667c0-6.826667-1.706667-6.826667-8.533333-6.826667h-162.133333c-5.12 0-6.826667-1.706667-6.826667-6.826666v-107.52c0-3.413333 0-6.826667 1.706667-10.24 1.706667-10.24 8.533333-17.066667 18.773333-20.48 5.12-1.706667 8.533333-1.706667 13.653333-1.706667h143.36c8.533333 0 10.24-1.706667 10.24-10.24v-32.426667c1.706667-5.12 0-6.826667-5.12-6.826666zM2433.706667 682.666667H2321.066667c-23.893333 0-35.84-11.946667-37.546667-35.84v-8.533334-353.28c0-5.12-1.706667-6.826667-6.826667-6.826666h-78.506666c-23.893333 0-30.72 5.12-30.72 30.72v361.813333c0 39.253333 18.773333 59.733333 59.733333 61.44h203.093333c10.24 0 11.946667-1.706667 11.946667-10.24v-30.72c0-6.826667-1.706667-8.533333-8.533333-8.533333zM1223.68 278.186667h-92.16c-11.946667 0-18.773333 6.826667-18.773333 18.773333V549.546667c0 25.6 1.706667 51.2 0 78.506666-1.706667 32.426667-20.48 54.613333-52.906667 63.146667-8.533333 1.706667-15.36 3.413333-23.893333 3.413333-29.013333 5.12-58.026667 5.12-85.333334 3.413334-5.12 0-6.826667 1.706667-6.826666 6.826666V733.866667c0 6.826667 1.706667 10.24 8.533333 10.24 20.48 1.706667 39.253333 3.413333 59.733333 3.413333 39.253333 0 80.213333-1.706667 117.76-15.36 44.373333-15.36 75.093333-44.373333 88.746667-90.453333 6.826667-23.893333 6.826667-47.786667 6.826667-71.68V286.72v-3.413333c1.706667-5.12 0-5.12-1.706667-5.12zM2053.12 278.186667h-83.626667c-3.413333 0-6.826667 0-10.24 1.706666-8.533333 1.706667-13.653333 8.533333-15.36 17.066667v428.373333c0 5.12 1.706667 6.826667 6.826667 6.826667h92.16c8.533333-1.706667 13.653333-5.12 15.36-13.653333 0-3.413333 1.706667-6.826667 1.706667-11.946667V285.013333c0-5.12-1.706667-6.826667-6.826667-6.826666zM1440.426667 523.946667h-100.693334c-5.12 0-8.533333 1.706667-8.533333 6.826666v192.853334c0 5.12 1.706667 6.826667 6.826667 6.826666h93.866666c10.24-1.706667 15.36-6.826667 17.066667-17.066666v-8.533334-174.08c0-5.12-1.706667-6.826667-8.533333-6.826666z" fill="#252021" p-id="9684"></path><path d="M1332.906667 520.533333V302.08c0-15.36 6.826667-23.893333 23.893333-23.893333h88.746667c3.413333 0 5.12 1.706667 5.12 5.12v139.946666c0 5.12-1.706667 10.24-6.826667 13.653334-35.84 27.306667-71.68 56.32-107.52 83.626666h-3.413333z" fill="#FE0131" p-id="9685"></path></svg>