<?xml version="1.0" standalone="no"?><!DOCTYPE svg PUBLIC "-//W3C//DTD SVG 1.1//EN" "http://www.w3.org/Graphics/SVG/1.1/DTD/svg11.dtd"><svg t="1712520431082" class="icon" viewBox="0 0 1024 1024" version="1.1" xmlns="http://www.w3.org/2000/svg" p-id="8492" xmlns:xlink="http://www.w3.org/1999/xlink" width="48" height="48"><path d="M865.081892 491.803708c2.728046-13.412892 2.728046-13.64023 17.277625-13.64023h43.876072c-0.682011 4.319406-1.364023 7.502126-2.046035 10.912184-6.592778 26.825785-13.412892 53.424233-20.00567 80.250017-0.454674 1.59136-0.682011 2.955383-0.909349 4.546744-1.364023 10.230172 3.410057 14.549578 13.185556 12.503543 3.410057-0.682011 6.820115-1.818697 10.230172-2.955383 3.410057-1.136686 6.592778-2.500709 11.139521-4.319406 1.59136 6.592778 2.955383 12.503544 4.092069 18.641647 0.227337 1.136686-0.682011 3.18272-1.591361 3.864732-17.732299 12.048869-35.919271 22.733716-57.970975 24.097739-18.41431 1.136686-32.05454-7.047452-40.693352-24.097739-15.913601 15.23159-33.191225 25.916436-55.697604 23.415728-22.051705-2.500709-37.055957-17.050287-51.378199-32.736551-7.274789 5.228755-13.867567 10.230172-20.915018 14.776915-17.277624 11.366858-35.691934 19.778333-57.061628 19.323659-20.460344-0.454674-36.146608-9.548161-49.104826-24.779751-1.818697-2.046034-3.410057-4.319406-5.456092-6.820115-7.956801 5.001418-15.23159 10.684847-23.415728 14.549579-13.867567 6.36544-27.962471 13.185555-42.512049 16.368275-25.689099 5.683429-41.148026-3.18272-53.196895-26.598448-0.682011-1.136686-1.136686-2.273372-2.046035-4.319406-2.728046 1.364023-5.456092 2.500709-7.9568 3.864732-30.008505 16.140938-60.926359 29.553831-95.936282 26.825785-11.366858-0.909349-22.961053-2.500709-33.873237-5.683429-35.919271-11.139521-51.378198-43.876072-38.192643-79.113332 13.867567-36.82862 41.830037-55.924941 79.568006-62.517719 19.550996-3.410057 38.874654-2.273372 57.061628 6.138103 5.228755 2.500709 10.230172 5.910766 14.094904 10.230173 11.821532 12.276207 12.730881 25.234425 3.864731 39.784003-14.094904 22.961053-36.146608 31.145191-61.60837 33.191225-9.548161 0.682011-19.323659 0.227337-29.326494 0.227337-4.319406 12.958218 4.77408 26.143773 20.00567 27.053122 33.418563 2.273372 63.881742-5.456092 90.48019-26.598447a18.186973 18.186973 0 0 0 5.456092-8.638813c7.274789-23.643065 14.322241-47.513467 21.142356-71.156531 1.59136-5.228755 3.864732-7.274789 9.548161-7.274789 16.140938 0.454674 32.281877 0.227337 48.195478 0.227337 2.046034 0 3.864732 0.454674 6.820114 0.682012l-10.457509 42.739386c-3.410057 14.094904-7.047452 28.189808-10.002835 42.512049-1.59136 7.274789-2.955383 15.458927 3.864732 20.687681 6.820115 5.228755 13.867567 0.454674 20.00567-2.728045 5.228755-2.728046 10.230172-6.138103 14.549578-9.775498 2.273372-1.818697 3.864732-5.228755 4.546743-8.184138 4.546743-26.825785 14.094904-50.923524 35.919272-68.201148 28.644482-22.506379 61.153696-25.007088 95.25427-15.913601 4.77408 1.364023 6.592778 3.864732 5.001417 9.093486-2.273372 7.502126-3.637395 15.23159-5.683429 23.643065-3.18272-2.728046-5.228755-4.546743-7.274789-6.138104-12.276207-9.775498-24.097739-9.775498-34.782585 1.364023-17.504961 18.186973-22.961053 40.693352-19.778333 65.245765 1.818697 13.64023 13.867567 20.915019 27.96247 18.641647 15.913601-2.500709 28.644482-10.684847 37.737969-24.097739 2.046034-2.955383 2.728046-7.047452 3.637395-10.684846 9.093486-45.694769 40.01134-76.385286 85.478772-85.024098 15.004253-2.955383 27.507796 2.046034 39.556666 10.230172 3.18272 1.364023 6.138103 3.864732 9.320823 6.365441z m-67.746473 77.749309v5.456091c0.682011 14.094904 8.866149 20.00567 22.506378 16.595613 10.230172-2.500709 17.732299-9.093486 20.915019-18.41431 5.228755-15.458927 9.320824-31.145191 12.503544-47.058792 2.046034-10.457509-2.500709-17.050287-10.002835-20.00567-11.594195-4.546743-19.096321-2.728046-26.371111 6.820115-12.503544 16.595613-17.959636 35.919271-19.550995 56.606953z m-427.166525-23.415728c25.234425 2.728046 44.558083-8.866149 50.014176-29.099157 2.046034-7.274789-0.227337-13.185555-5.683429-17.732298-5.001418-4.319406-10.457509-2.500709-15.913602 0-19.323659 9.320824-23.18839 27.962471-28.417145 46.831455z" fill="#FFFFFF" p-id="8493"></path><path d="M201.257384 495.895777c-5.683429-1.136686-11.366858-2.046034-16.595612-3.410058-6.138103-1.59136-12.276207-3.18272-18.186973-5.683429-9.548161-3.864732-12.276207-12.048869-6.820115-21.142356 0.909349-1.364023 4.77408-2.046034 6.820115-1.59136 10.684847 2.273372 21.142356 5.910766 32.054539 7.502126 12.503544 2.046034 12.276207 1.364023 14.322241-10.912183 6.592778-39.784003 18.641647-77.521972 42.966724-110.258523 16.82295-22.279042 38.192643-38.41998 65.700439-45.240095 44.558083-11.139521 79.795343 20.460344 73.65724 65.927777-7.729463 55.924941-39.101992 92.298887-91.162201 111.849882-4.77408 1.818697-9.548161 4.092069-14.549579 4.546744-10.684847 0.909349-13.867567 6.820115-16.822949 16.595612-9.320824 30.917854-20.233007 61.60837-31.372529 91.844213-2.955383 8.184138-8.638812 15.458927-13.640229 24.325076 9.093486 2.955383 18.186973 6.36544 27.507796 9.093487 57.516302 17.050287 116.169289 28.189808 175.504288 35.691934 73.65724 9.320824 147.769154 12.276207 221.881068 10.002835 92.980899-2.955383 184.825111-13.867567 275.759976-33.191226 2.955383-0.682011 5.910766-0.909349 10.002835-1.59136 0 5.910766 0.454674 10.912184-0.227337 15.913602-0.227337 1.818697-3.410057 4.092069-5.683429 4.77408-58.880325 17.050287-118.669998 30.235842-179.36902 39.784003-65.018428 10.230172-130.264193 15.913601-196.191969 15.913601-76.612623 0-152.543235-7.047452-227.33716-24.097739-40.238677-9.093486-79.568006-20.915019-117.305975-37.283294-2.500709-1.136686-6.820115-0.227337-9.320824 1.59136-32.509214 22.279042-68.201148 31.145191-107.075802 22.506379-21.142356-4.546743-36.146608-17.504961-42.739386-38.874654-4.319406-14.322241 4.77408-30.917854 20.233007-37.737969 18.41431-7.956801 37.510631-7.047452 56.606953-4.546743 10.457509 1.364023 20.460344 4.319406 30.917854 5.910766 2.273372 0.454674 6.138103-1.136686 7.047452-2.955383 15.458927-32.736551 27.507796-66.609788 33.645899-102.301722 0.227337-0.454674 0-1.136686-0.227337-2.955383z m78.885995-31.372529c3.864732-0.682011 5.456092-0.909349 6.820115-1.364023 36.601283-10.230172 61.153696-33.6459 74.339251-69.110496 5.001418-13.412892 9.775498-27.053122 6.138103-41.830038-4.319406-18.41431-22.051705-25.234425-37.055957-13.412892-5.683429 4.546743-11.594195 10.002835-14.549578 16.368275-8.184138 16.595613-15.913601 33.6459-21.59703 51.150861-6.138103 18.41431-9.320824 37.510631-14.094904 58.198313z m-128.445496 167.32015a99.573676 99.573676 0 0 0-46.831455-10.684846c-4.092069 0-8.638812 1.364023-12.503544 3.18272-11.821532 5.456092-12.730881 13.185555-3.18272 21.59703 14.776915 12.503544 53.196896 4.319406 62.517719-14.094904z" fill="#FFFFFF" p-id="8494"></path><path d="M550.219925 405.642924c9.320824 0 17.732299 2.728046 24.552414 9.093486 9.775498 9.320824 9.548161 24.097739-0.682012 32.963889-14.094904 12.503544-36.82862 11.594195-50.014175-1.818698-8.866149-9.093486-8.866149-20.687682 0.227337-29.781168 7.047452-7.502126 15.913601-10.457509 25.916436-10.457509z" fill="#FFFFFF" p-id="8495"></path><path d="M502.479122 1023.772663C222.39974 1019.453257-4.028072 790.297399 0.063997 505.2166 4.156066 224.22787 233.993935-4.70065 519.756746 0.07343c279.852044 4.77408 509.007902 235.975972 504.006484 522.420794-4.77408 280.534056-236.657984 505.597845-521.284108 501.278439zM201.257384 495.895777c0 1.818697 0.227337 2.728046 0.227337 3.410057-6.138103 35.691934-18.186973 69.565171-33.645899 102.301722-0.909349 1.818697-4.77408 3.18272-7.047452 2.955383-10.230172-1.59136-20.460344-4.546743-30.917854-5.910766-19.096321-2.500709-38.192643-3.637395-56.606953 4.546743-15.458927 6.820115-24.552413 23.415728-20.233007 37.737969 6.592778 21.142356 21.369693 34.100574 42.739386 38.874654 38.874654 8.411475 74.339251-0.227337 107.075802-22.506379 2.273372-1.59136 6.820115-2.500709 9.320824-1.59136 37.965306 16.368276 77.294635 28.189808 117.305975 37.283295 74.793926 17.050287 150.724537 24.325076 227.33716 24.097739 65.700439 0 131.173542-5.683429 196.191969-15.913602 60.699022-9.548161 120.488695-22.961053 179.36902-39.784003 2.273372-0.682011 5.456092-2.728046 5.683429-4.77408 0.909349-4.77408 0.227337-10.002835 0.227337-15.913601-4.092069 0.682011-7.047452 1.136686-10.002835 1.59136-90.934864 19.323659-183.006414 30.235842-275.759976 33.191225-74.111914 2.273372-148.223829-0.682011-221.881068-10.002835-59.334999-7.502126-117.987986-18.641647-175.504288-35.691934-9.320824-2.728046-18.641647-6.138103-27.507796-9.093486 5.001418-8.866149 10.684847-16.140938 13.640229-24.325077 11.139521-30.463179 21.824367-60.926359 31.372529-91.844212 2.955383-9.775498 6.138103-15.686264 16.822949-16.595613 5.001418-0.454674 9.775498-2.728046 14.549579-4.546743 52.06021-19.550996 83.660075-56.152279 91.162201-111.849883 6.138103-45.467432-29.099157-77.067297-73.65724-65.927777-27.507796 6.820115-48.877489 22.733716-65.700439 45.240095-24.552413 32.736551-36.373946 70.47452-42.966724 110.258523-2.046034 12.276207-1.818697 12.958218-14.322241 10.912184-10.684847-1.818697-21.369693-5.228755-32.054539-7.502127-2.046034-0.454674-5.910766 0.227337-6.820115 1.591361-5.456092 9.093486-2.728046 17.277624 6.820115 21.142355 5.910766 2.273372 12.048869 4.092069 18.186973 5.683429 5.456092 0.909349 10.912184 1.818697 16.595612 2.955384z m663.824508-4.092069c-3.18272-2.500709-6.138103-4.77408-9.093486-7.047452-11.821532-8.184138-24.325076-13.185555-39.556666-10.230173-45.694769 8.866149-76.612623 39.329329-85.478772 85.024098-0.682011 3.637395-1.364023 7.729463-3.637395 10.684847-9.093486 13.185555-21.59703 21.59703-37.737968 24.097739-14.094904 2.273372-26.143773-5.001418-27.962471-18.641647-3.410057-24.325076 2.273372-47.058792 19.778333-65.245765 10.912184-11.366858 22.506379-11.139521 34.782585-1.364023 2.273372 1.818697 4.319406 3.637395 7.27479 6.138103 2.046034-8.411475 3.410057-16.140938 5.683429-23.643064 1.59136-5.228755-0.227337-7.729463-5.001418-9.093487-34.100574-9.093486-66.609788-6.592778-95.25427 15.913601-21.824367 17.277624-31.372528 41.375363-35.919272 68.201148-0.454674 2.955383-2.273372 6.36544-4.546743 8.184138-4.546743 3.864732-9.320824 7.047452-14.549578 9.775498-6.138103 3.18272-13.185555 7.956801-20.00567 2.728046-6.820115-5.228755-5.456092-13.412892-3.864732-20.687682 2.955383-14.322241 6.592778-28.417145 10.002835-42.512049 3.410057-14.094904 6.820115-28.189808 10.45751-42.739386-2.955383-0.227337-5.001418-0.682011-6.820115-0.682011-16.140938 0-32.281877 0.227337-48.195478-0.227337-5.683429-0.227337-7.956801 1.818697-9.548161 7.274789-6.820115 23.870402-13.867567 47.513467-21.142356 71.156531a18.186973 18.186973 0 0 1-5.456092 8.638812c-26.371111 21.142356-57.061627 28.871819-90.480189 26.598448-15.23159-0.909349-24.325076-14.322241-20.005671-27.053122 9.775498 0 19.550996 0.682011 29.326494-0.227337 25.234425-2.046034 47.513467-10.230172 61.608371-33.191226 8.866149-14.322241 7.729463-27.507796-3.864732-39.784003-3.864732-4.092069-9.093486-7.729463-14.094904-10.230172-18.186973-8.638812-37.283294-9.548161-57.061627-6.138103-37.737969 6.592778-65.700439 25.689099-79.568006 62.517719-13.185555 35.23726 2.273372 67.973811 38.192642 79.113331 10.912184 3.410057 22.506379 5.001418 33.873237 5.683429 35.23726 2.728046 65.927776-10.684847 95.936282-26.825784 2.500709-1.364023 5.228755-2.500709 7.956801-3.864732 0.909349 2.046034 1.59136 3.18272 2.046034 4.319406 12.048869 23.415728 27.507796 32.281877 53.196896 26.598448 14.776915-3.18272 28.644482-10.230172 42.512049-16.368276 8.184138-3.637395 15.458927-9.548161 23.415727-14.549578 2.046034 2.500709 3.637395 4.77408 5.456092 6.820115 12.958218 15.004253 28.644482 24.325076 49.104827 24.77975 21.369693 0.454674 39.784003-7.729463 57.061627-19.323659 7.047452-4.546743 13.64023-9.775498 20.915019-14.776915 14.322241 15.686264 29.099157 30.235842 51.378198 32.736551 22.506379 2.728046 39.784003-8.184138 55.697604-23.415727 8.638812 17.050287 22.279042 25.234425 40.693352 24.097739 22.051705-1.364023 40.466015-12.048869 57.970976-24.097739 0.909349-0.682011 1.818697-2.728046 1.59136-3.864732-1.136686-6.138103-2.728046-12.048869-4.092069-18.641647-4.546743 1.818697-7.729463 3.18272-11.139521 4.319406-3.410057 1.136686-6.820115 2.273372-10.230172 2.955383-10.002835 2.046034-14.549578-2.500709-13.185556-12.503544 0.227337-1.59136 0.682011-2.955383 0.909349-4.546743 6.592778-26.825785 13.412892-53.424233 20.00567-80.250018 0.909349-3.410057 1.364023-6.592778 2.046035-10.912183h-43.876072c-14.549578 0.682011-14.549578 0.682011-17.504962 14.322241zM550.219925 405.642924c-10.230172 0-18.868984 3.18272-26.143773 10.457509-8.866149 9.093486-9.093486 20.915019-0.227337 29.781168 13.185555 13.412892 35.919271 14.322241 50.014175 1.818698 10.230172-8.866149 10.684847-23.870402 0.682012-32.963889-6.592778-6.36544-15.004253-9.093486-24.325077-9.093486z" fill="#D72F29" p-id="8496"></path><path d="M280.143379 464.523248c4.77408-20.460344 7.956801-39.784003 13.867567-57.970975 5.683429-17.504961 13.64023-34.555248 21.59703-51.150862 3.18272-6.36544 8.866149-11.821532 14.549578-16.368275 15.004253-11.821532 32.736551-5.001418 37.055957 13.412892 3.410057 14.776915-1.364023 28.417145-6.138103 41.830038-12.958218 35.464597-37.510631 58.880325-74.339251 69.110497-1.136686 0.227337-2.728046 0.227337-6.592778 1.136685zM151.697883 631.843398c-9.320824 18.41431-47.740804 26.598448-62.290382 14.094904-9.548161-8.411475-8.638812-16.140938 3.182721-21.59703 3.864732-1.818697 8.184138-2.955383 12.503543-3.18272 16.140938-0.454674 31.599865 3.18272 46.604118 10.684846zM797.335419 569.553017c1.59136-20.687682 7.047452-40.01134 19.550995-56.834291 7.047452-9.548161 14.549578-11.139521 26.371111-6.820114 7.729463 2.955383 12.048869 9.548161 10.002835 20.00567-2.955383 15.913601-7.274789 31.599865-12.503544 47.058792-3.18272 9.320824-10.684847 15.913601-20.915019 18.41431-13.64023 3.410057-21.824367-2.500709-22.506378-16.595613v-5.228754zM370.168894 546.137289c5.001418-18.868984 8.866149-37.510631 28.644483-46.831455 5.228755-2.500709 10.684847-4.319406 15.913601 0 5.456092 4.546743 7.729463 10.457509 5.683429 17.732298-5.683429 20.233007-25.007088 32.05454-50.241513 29.099157z" fill="#D72F29" p-id="8497"></path></svg>