<?xml version="1.0" standalone="no"?><!DOCTYPE svg PUBLIC "-//W3C//DTD SVG 1.1//EN" "http://www.w3.org/Graphics/SVG/1.1/DTD/svg11.dtd"><svg t="1712520382068" class="icon" viewBox="0 0 1024 1024" version="1.1" xmlns="http://www.w3.org/2000/svg" p-id="5402" xmlns:xlink="http://www.w3.org/1999/xlink" width="48" height="48"><path d="M0 0h1024v1024H0V0z" fill="#FFFFFF" p-id="5403"></path><path d="M45.176783 45.176783h933.646434v933.646434H45.176783V45.176783z" fill="#FADF3C" p-id="5404"></path><path d="M45.325531 637.489884H113.473199l26.636453-123.779286h0.690614l47.445184 123.779286H254.624084l51.923551-247.154828H240.493059l-25.595219 122.413995h-0.690614l-48.481106-122.413995H96.553155L45.325531 637.489884z m337.784639 0h64.343979l19.060948-90.220756 1.976218-1.487477L495.892756 637.489884h63.934923l-27.162382-99.124365 68.413289-80.530909H525.339476l-50.946067 61.310589h-1.976218l28.362987-128.810143H434.337795L383.11017 637.489884z m395.264978 0h64.338666l20.075619-95.193177c4.148997-18.694391 8.042997-31.407002 29.839839-31.407002 11.081699 0 15.012887 4.430555 14.131026 14.566644-0.632177 7.240823-4.515553 22.296209-6.59802 32.681981L881.728195 637.489884h68.530163l21.807466-101.424641c2.767769-13.153541 5.158356-25.913964 6.130528-33.813526 3.670879-29.892963-14.1629-49.30453-46.680197-48.810475-28.687045 0.440931-40.995912 17.260039-54.149453 33.531968h-0.695927l5.200855-29.1386h-66.113013L778.375148 637.489884zM330.262259 411.01629c0-16.080682 16.904107-29.112038 37.755338-29.112038 20.851232 0 37.755338 13.036668 37.755339 29.112038 0 16.080682-16.904107 29.11735-37.755339 29.11735-20.845919 0.005312-37.755338-13.036668-37.755338-29.11735zM288.262301 637.489884h64.338666l37.388782-179.655274H325.64577L288.262301 637.489884z" p-id="5405"></path><path d="M648.406898 561.235469c5.758659-31.348565 11.474818-61.374339 36.230675-62.261512 16.776609-0.600303 16.776609 15.007574 12.346054 42.823383-2.449024 15.384756-11.464193 52.125423-31.789496 51.684492-19.385005-0.424993-19.411567-17.940028-16.787233-32.246363z m-72.652597-3.362759c-6.587395 65.119592 44.842101 85.960198 89.647015 84.11679 80.153728-3.293698 101.010272-64.625537 108.35203-110.078566 7.596754-47.057378-33.8454-81.067464-86.459565-81.067463-73.38571 0-105.138019 43.705244-111.53948 107.029239z" p-id="5406"></path></svg>