<?xml version="1.0" standalone="no"?><!DOCTYPE svg PUBLIC "-//W3C//DTD SVG 1.1//EN" "http://www.w3.org/Graphics/SVG/1.1/DTD/svg11.dtd"><svg t="1712520409816" class="icon" viewBox="0 0 5513 1024" version="1.1" xmlns="http://www.w3.org/2000/svg" p-id="6557" xmlns:xlink="http://www.w3.org/1999/xlink" width="258.421875" height="48"><path d="M919.79771 116.873415v38.170778c0 9.444316-9.601722 19.046038-19.203444 19.046038-9.523019 0-9.523019-4.722158-28.726462-14.323879a1394.217201 1394.217201 0 0 0-129.308431-52.415956C699.430328 93.026516 622.77396 78.702636 498.187687 78.702636c-124.507571 0-244.292983 33.369918-287.422027 47.693798S81.457228 188.414111 57.452924 217.061871C33.527323 245.552225 0 279.000845 0 341.018523c0 62.017677 9.601722 124.035355 52.730766 171.729152 43.050342 47.693798 86.179387 81.063715 196.363078 100.188456 110.183691 19.046038 282.699869 38.170779 445.535623 57.216817 162.914457 19.124741 177.238337 71.619399 177.238337 100.188455 0 28.64776-9.523019 57.216817-52.730766 81.063716-43.050342 23.846899-95.781108 47.693798-201.163938 47.693797s-234.691261-19.046038-301.82461-47.693797c-67.054646-28.569057-105.38283-57.216817-138.910153-95.387595-22.351549-25.420952-33.527323-57.216817-33.527323-95.387595H28.805165v333.856582h124.50757v-42.892936c0-9.523019 4.722158-23.846899 19.124741-23.846899s19.203443 9.523019 38.328184 19.046038c19.203443 9.601722 119.785412 42.971639 162.914457 52.494658 43.129045 9.523019 138.910153 23.846899 205.964799 23.846899 67.054646 0 215.645223-9.523019 311.426331-47.693798C986.852356 937.269695 1101.836907 865.728999 1101.836907 770.341403s0-166.928291-95.781108-238.468987c-95.859811-71.619399-182.039198-76.341557-249.172546-90.665437-67.054646-14.32388-244.292983-33.369918-287.422028-33.369918s-177.238337-19.124741-205.964799-33.369918C234.769964 360.143263 220.367381 345.504573 220.367381 317.171624c0-28.332949 19.124741-42.892937 43.129045-62.017677 23.925601-19.046038 95.781108-52.415956 205.964799-52.415956s153.312735 4.722158 234.769964 19.046038c81.457228 14.32388 225.08954 95.387595 225.08954 181.252171h115.063254V116.873415h-124.586273zM2006.917224 944.431635C1637.487049 944.431635 1337.944816 733.036354 1337.944816 472.215817s299.542233-472.215817 668.972408-472.215817S2675.889632 211.395281 2675.889632 472.215817s-299.542233 472.215817-668.972408 472.215818z m0-121.595573c210.76566 0 381.55038-154.886788 381.55038-345.976789 0-191.011298-170.784721-345.976789-381.55038-345.976789s-381.55038 154.965491-381.550381 345.976789c0 191.090001 170.784721 345.976789 381.550381 345.976789zM2754.592268 78.702636v107.035586h115.53547c9.601722 0 28.883867 4.800861 38.485589 19.439551 9.601722 14.559988 9.601722 29.119975 9.601722 53.517792v520.381831c0 29.119975-4.800861 38.879102-14.402583 48.638229-9.680424 9.680424-14.481285 9.680424-33.684728 9.680424h-105.933748V944.431635h490.947045v-107.035586h-134.817616c-14.402582 0-14.402582 0-24.004304-9.680424-9.680424-9.759127-9.680424-29.119975-9.680425-48.638229V336.45377L3765.291523 944.431635h173.224502c-6.374914-460.410422-9.601722-697.147952-9.601722-710.055184 0-19.518254 0-24.397817 9.601722-34.078242a51.707632 51.707632 0 0 1 33.684728-14.559987H4092.537084V78.702636h-500.548766v107.035586h129.938052c9.680424 0 19.282146 4.800861 28.883867 14.559987a44.388287 44.388287 0 0 1 14.481286 34.078242V618.602721L3178.169856 78.702636H2754.592268zM4171.23972 78.702636v107.035586h123.012221c9.759127 0 24.555223 4.800861 29.434786 9.680424 3.305511 3.226808 132.85005 142.687879 388.633617 418.304511v204.233341c0 9.759127-9.83783 19.439551-24.633925 19.439551H4545.077242V944.431635h600.107602v-107.035586h-142.68788c-9.759127 0-24.555223-4.800861-24.555222-19.439551V613.723157c236.107909-269.163016 357.467374-406.892629 363.999692-413.424948 9.83783-9.759127 19.675659-14.559988 29.513489-14.559987H5509.184536V78.702636h-491.891476v107.035586h83.660902c14.717393 0 19.675659 24.319115 4.879563 38.879102-9.83783 9.759127-80.276689 90.74414-211.552686 243.191146-124.586273-152.447006-191.798324-233.432019-201.636154-243.191146-14.796096-14.559988-14.796096-38.879102 0-38.879102h78.702636V78.702636H4171.23972z" fill="#666666" p-id="6558"></path></svg>